<?xml version="1.0" encoding="UTF-8"?>
<!DOCTYPE svg  PUBLIC '-//W3C//DTD SVG 1.1//EN'  'http://www.w3.org/Graphics/SVG/1.1/DTD/svg11.dtd' [
	<!ENTITY ns_svg "http://www.w3.org/2000/svg">
	<!ENTITY ns_xlink "http://www.w3.org/1999/xlink">
]>
<svg enable-background="new 0 0 100.5 100.5" overflow="visible" version="1.1" viewBox="0 0 100.5 100.5" xml:space="preserve" xmlns="http://www.w3.org/2000/svg">
<g transform="matrix(1.3333 0 0 -1.3333 0 5173.3)">
	<g transform="scale(.1)">


				<path d="m751.89 38799v-750.02h-750.02v750.02h750.02zm-179.56-420.24v27.98c-8.474 0-16.421 3.297-22.42 9.301-11.331 11.246-26.331 17.473-42.225 17.473-15.982 0-30.982-6.227-42.679-17.926-2.922-2.922-6.372-5.172-10.049-6.672l8.247 20.848c10.276 25.727 3.823 54.602-15.374 73.727l41.698 105.08-78.371 31.051-41.628-105.07c-27.525-0.828-51.6-17.629-61.726-43.203l-27.001-68.176c-23.251 15.75-55.277 13.348-76.65-8.023-6.002-6.008-13.953-9.305-22.427-9.305v-27.977c15.901 0 30.902 6.223 43.126 18.375 11.924 11.926 32.326 12.379 45.151-0.301l-49.952-126.07 155.4-61.574 67.425 170.17c15.301 0.156 30.528 6.008 42.306 17.777 11.997 12.004 32.923 12.004 44.921 0 11.248-11.324 26.249-17.477 42.223-17.477z" fill="#fff"/>
				<path d="m572.34 38407v-27.98c-15.974 0-30.975 6.152-42.225 17.477-11.997 12.004-32.923 12.004-44.921 0-11.778-11.77-27.005-17.621-42.306-17.777l-67.425-170.17-155.4 61.574 49.952 126.07c-12.825 12.68-33.227 12.227-45.151 0.301-12.224-12.152-27.225-18.375-43.126-18.375v27.977c8.474 0 16.425 3.297 22.427 9.305 21.373 21.371 53.399 23.773 76.65 8.023l27.001 68.176c10.126 25.574 34.201 42.375 61.726 43.203l41.628 105.07 78.371-31.051-41.698-105.08c19.197-19.125 25.65-48 15.374-73.727l-8.247-20.848c3.677 1.5 7.127 3.75 10.049 6.672 11.697 11.699 26.697 17.926 42.679 17.926 15.894 0 30.894-6.227 42.225-17.473 6.001-6.004 13.948-9.301 22.422-9.301zm-158.18 87.598 39.002 98.555-26.251 10.426-39.076-98.551-10.877 1.422c-18.6 2.477-36.3-8.023-43.126-25.125l-29.173-73.578c10.573-2.695 22.05 0 30.151 8.102 23.698 23.703 61.653 23.703 84.901 0.453 1.875-1.875 3.977-3.449 6.152-4.73l11.324 28.73c6.9 17.324 1.047 36.973-14.173 47.922l-8.854 6.374zm-54.372-249.75 55.647 140.56c-5.398 2.777-10.569 6.148-15.147 10.723-12.752 12.754-32.85 12.754-45.301 0.375-16.575-16.574-39.977-21.301-60.602-14.773l-38.025-95.855 103.43-41.025z" fill="#808080"/>
				<path d="m453.16 38593-39.002-98.555 8.855-6.375c15.22-10.949 21.072-30.598 14.173-47.922l-11.324-28.73c-2.175 1.281-4.277 2.855-6.152 4.73-23.248 23.25-61.203 23.25-84.901-0.453-8.101-8.102-19.578-10.797-30.151-8.102l29.173 73.578c6.826 17.102 24.526 27.602 43.126 25.125l10.877-1.422 39.076 98.551 26.25-10.425z" fill="#fff"/>
				<path d="m415.43 38385-55.647-140.56-103.43 41.023 38.025 95.855c20.626-6.527 44.027-1.801 60.602 14.773 12.451 12.379 32.55 12.379 45.301-0.375 4.578-4.572 9.749-7.943 15.147-10.721z" fill="#88FF4D"/>



	</g>
</g>
</svg>
